<?xml version="1.0" encoding="UTF-8"?>
<svg id="_Слой_1" data-name="Слой 1" xmlns="http://www.w3.org/2000/svg" version="1.1" viewBox="0 0 800 800">
  <defs>
    <style>
      .cls-1, .cls-2 {
        fill: #FF4A4A;
        stroke-width: 0px;
      }

      .cls-2 {
        fill-rule: evenodd;
      }

      .cls-3 {
        display: none;
      }
    </style>
  </defs>
  <path class="cls-2" d="M400,33.3c-36.8,0-66.7,29.8-66.7,66.7s13.4,46.2,33.3,57.7v75.6h-166.7c-55.2,0-100,44.8-100,100v333.3c0,55.2,44.8,100,100,100h400c55.2,0,100-44.8,100-100v-333.3c0-55.2-44.8-100-100-100h-166.7v-75.6c19.9-11.5,33.3-33.1,33.3-57.7,0-36.8-29.8-66.7-66.7-66.7ZM166.7,333.3c0-18.4,14.9-33.3,33.3-33.3h46.1l48.2,96.5c11.3,22.6,34.4,36.9,59.6,36.9h92.1c25.2,0,48.3-14.3,59.6-36.9l48.2-96.5h46.1c18.4,0,33.3,14.9,33.3,33.3v333.3c0,18.4-14.9,33.3-33.3,33.3H200c-18.4,0-33.3-14.9-33.3-33.3v-333.3ZM446.1,366.7l33.3-66.7h-158.8l33.3,66.7h92.1Z"/>
  <path class="cls-1" d="M33.3,466.7c-18.4,0-33.3,14.9-33.3,33.3v66.7c0,18.4,14.9,33.3,33.3,33.3s33.3-14.9,33.3-33.3v-66.7c0-18.4-14.9-33.3-33.3-33.3Z"/>
  <path class="cls-1" d="M733.3,500c0-18.4,14.9-33.3,33.3-33.3s33.3,14.9,33.3,33.3v66.7c0,18.4-14.9,33.3-33.3,33.3s-33.3-14.9-33.3-33.3v-66.7Z"/>
  <g class="cls-3">
    <path class="cls-1" d="M300,500c-18.4,0-33.3,14.9-33.3,33.3h66.7c0-18.4-14.9-33.3-33.3-33.3Z"/>
    <path class="cls-1" d="M500,500c-18.4,0-33.3,14.9-33.3,33.3h66.7c0-18.4-14.9-33.3-33.3-33.3Z"/>
  </g>
  <g>
    <path class="cls-1" d="M511.8,536.7c13-13,13-34.1,0-47.1l-47.1,47.1c13,13,34.1,13,47.1,0Z"/>
    <path class="cls-1" d="M288.2,536.7c13,13,34.1,13,47.1,0l-47.1-47.1c-13,13-13,34.1,0,47.1Z"/>
  </g>
</svg>