<svg width="81" height="81" viewBox="0 0 81 81" fill="none" xmlns="http://www.w3.org/2000/svg">
<path fill-rule="evenodd" clip-rule="evenodd" d="M80.2629 36.9687L79.3365 46.8114C77.81 63.029 77.0469 71.1378 72.2672 76.027C67.4876 80.9166 60.3237 80.9166 45.9964 80.9166H35.0039C20.6765 80.9166 13.5128 80.9166 8.73302 76.027C3.9533 71.1378 3.19011 63.029 1.66378 46.8114L0.737469 36.9687C0.00992826 29.2386 -0.353821 25.3735 0.968572 23.7758C1.68391 22.9115 2.65665 22.3819 3.6967 22.2906C5.61928 22.1217 8.03377 24.8704 12.8627 30.3677C15.3601 33.2108 16.6087 34.6322 18.0017 34.8525C18.7735 34.9742 19.56 34.8489 20.2727 34.4904C21.5589 33.8429 22.4165 32.0857 24.1317 28.571L33.1722 10.0454C36.4132 3.40397 38.0339 0.083252 40.5002 0.083252C42.9664 0.083252 44.5871 3.40397 47.8281 10.0454L56.8685 28.571C58.5838 32.0857 59.4414 33.8429 60.7275 34.4904C61.4404 34.8489 62.2269 34.9742 62.9985 34.8525C64.3917 34.6322 65.6401 33.2108 68.1375 30.3677C72.9665 24.8704 75.381 22.1217 77.3036 22.2906C78.3435 22.3819 79.3163 22.9115 80.0317 23.7758C81.3541 25.3735 80.9904 29.2386 80.2629 36.9687ZM44.3494 43.325L43.9521 42.6125C42.4163 39.8573 41.6484 38.4799 40.5002 38.4799C39.3519 38.4799 38.584 39.8573 37.0482 42.6125L36.6509 43.325C36.2148 44.1079 35.9965 44.4995 35.6562 44.7578C35.3159 45.0161 34.8923 45.1119 34.0448 45.3038L33.2732 45.4784C30.2907 46.153 28.7996 46.4905 28.4448 47.6314C28.09 48.7724 29.1066 49.9611 31.1398 52.3384L31.6658 52.9535C32.2436 53.6293 32.5324 53.9672 32.6626 54.3851C32.7923 54.803 32.7486 55.2536 32.6613 56.1549L32.5817 56.9758C32.2744 60.1477 32.1207 61.734 33.0493 62.4389C33.9785 63.1442 35.3745 62.5011 38.1669 61.2155L38.8891 60.8828C39.6829 60.5175 40.0794 60.3348 40.5002 60.3348C40.9209 60.3348 41.3174 60.5175 42.1112 60.8828L42.8334 61.2155C45.6258 62.5011 47.0218 63.1442 47.951 62.4389C48.8797 61.734 48.7258 60.1477 48.4186 56.9758L48.339 56.1549C48.2517 55.2536 48.208 54.803 48.3378 54.3851C48.4679 53.9672 48.7569 53.6293 49.3344 52.9535L49.8607 52.3384C51.8936 49.9611 52.9105 48.7724 52.5556 47.6314C52.2008 46.4905 50.7094 46.153 47.7271 45.4784L46.9555 45.3038C46.108 45.1119 45.6844 45.0161 45.3441 44.7578C45.0038 44.4995 44.7855 44.1079 44.3494 43.325Z" fill="#FFD335"/>
</svg>
